<svg xmlns="http://www.w3.org/2000/svg" viewBox="0 0 340 244"><defs><style>.cls-1{isolation:isolate}.cls-2,.cls-4{fill:#b8c1c1}.cls-3{opacity:.38}.cls-4{opacity:.39;mix-blend-mode:multiply}.cls-5{fill:#e4e7e7}</style></defs><title>404_Illustration</title><g class="cls-1"><g id="Layer_1" data-name="Layer 1"><path d="M130.42,77.12H116.75a1.38,1.38,0,1,1,0-2.77h13.67a1.38,1.38,0,0,1,0,2.77Z" class="cls-2"/><g class="cls-3"><circle cx="49.33" cy="167.85" r="1.56" class="cls-2"/><circle cx="55.38" cy="167.85" r="1.56" class="cls-2"/><circle cx="61.44" cy="167.85" r="1.56" class="cls-2"/><circle cx="67.49" cy="167.85" r="1.56" class="cls-2"/><circle cx="73.55" cy="167.85" r="1.56" class="cls-2"/><circle cx="79.6" cy="167.85" r="1.56" class="cls-2"/><circle cx="85.66" cy="167.85" r="1.56" class="cls-2"/><circle cx="91.72" cy="167.85" r="1.56" class="cls-2"/><circle cx="97.77" cy="167.85" r="1.56" class="cls-2"/><circle cx="103.83" cy="167.85" r="1.56" class="cls-2"/><circle cx="109.88" cy="167.85" r="1.56" class="cls-2"/><circle cx="49.33" cy="175.29" r="1.56" class="cls-2"/><circle cx="55.38" cy="175.29" r="1.56" class="cls-2"/><circle cx="61.44" cy="175.29" r="1.56" class="cls-2"/><circle cx="67.49" cy="175.29" r="1.56" class="cls-2"/><circle cx="73.55" cy="175.29" r="1.56" class="cls-2"/><circle cx="79.6" cy="175.29" r="1.56" class="cls-2"/><circle cx="85.66" cy="175.29" r="1.56" class="cls-2"/><circle cx="91.72" cy="175.29" r="1.56" class="cls-2"/><circle cx="97.77" cy="175.29" r="1.56" class="cls-2"/><circle cx="103.83" cy="175.29" r="1.56" class="cls-2"/><circle cx="109.88" cy="175.29" r="1.56" class="cls-2"/><circle cx="49.33" cy="182.73" r="1.56" class="cls-2"/><circle cx="55.38" cy="182.73" r="1.56" class="cls-2"/><circle cx="61.44" cy="182.73" r="1.56" class="cls-2"/><circle cx="67.49" cy="182.73" r="1.56" class="cls-2"/><circle cx="73.55" cy="182.73" r="1.56" class="cls-2"/><circle cx="79.6" cy="182.73" r="1.56" class="cls-2"/><circle cx="85.66" cy="182.73" r="1.56" class="cls-2"/><circle cx="91.72" cy="182.73" r="1.56" class="cls-2"/><circle cx="97.77" cy="182.73" r="1.56" class="cls-2"/><circle cx="103.83" cy="182.73" r="1.56" class="cls-2"/><circle cx="109.88" cy="182.73" r="1.56" class="cls-2"/><circle cx="49.33" cy="190.17" r="1.56" class="cls-2"/><circle cx="55.38" cy="190.17" r="1.56" class="cls-2"/><circle cx="61.44" cy="190.17" r="1.56" class="cls-2"/><circle cx="67.49" cy="190.17" r="1.56" class="cls-2"/><circle cx="73.55" cy="190.17" r="1.56" class="cls-2"/><circle cx="79.6" cy="190.17" r="1.56" class="cls-2"/><circle cx="85.66" cy="190.17" r="1.56" class="cls-2"/><circle cx="91.72" cy="190.17" r="1.56" class="cls-2"/><circle cx="97.77" cy="190.17" r="1.56" class="cls-2"/><circle cx="103.83" cy="190.17" r="1.56" class="cls-2"/><circle cx="109.88" cy="190.17" r="1.56" class="cls-2"/><circle cx="49.33" cy="197.61" r="1.56" class="cls-2"/><circle cx="55.38" cy="197.61" r="1.56" class="cls-2"/><circle cx="61.44" cy="197.61" r="1.56" class="cls-2"/><circle cx="67.49" cy="197.61" r="1.56" class="cls-2"/><circle cx="73.55" cy="197.61" r="1.56" class="cls-2"/><circle cx="79.6" cy="197.61" r="1.56" class="cls-2"/><circle cx="85.66" cy="197.61" r="1.56" class="cls-2"/><circle cx="91.72" cy="197.61" r="1.56" class="cls-2"/><circle cx="97.77" cy="197.61" r="1.56" class="cls-2"/><circle cx="103.83" cy="197.61" r="1.56" class="cls-2"/><circle cx="109.88" cy="197.61" r="1.56" class="cls-2"/><circle cx="49.33" cy="205.05" r="1.56" class="cls-2"/><circle cx="55.38" cy="205.05" r="1.56" class="cls-2"/><circle cx="61.44" cy="205.05" r="1.56" class="cls-2"/><circle cx="67.49" cy="205.05" r="1.56" class="cls-2"/><circle cx="73.55" cy="205.05" r="1.56" class="cls-2"/><circle cx="79.6" cy="205.05" r="1.56" class="cls-2"/><circle cx="85.66" cy="205.05" r="1.56" class="cls-2"/><circle cx="91.72" cy="205.05" r="1.56" class="cls-2"/><circle cx="97.77" cy="205.05" r="1.56" class="cls-2"/><circle cx="103.83" cy="205.05" r="1.56" class="cls-2"/><circle cx="109.88" cy="205.05" r="1.56" class="cls-2"/><circle cx="49.33" cy="212.49" r="1.56" class="cls-2"/><circle cx="55.38" cy="212.49" r="1.56" class="cls-2"/><circle cx="61.44" cy="212.49" r="1.56" class="cls-2"/><circle cx="67.49" cy="212.49" r="1.56" class="cls-2"/><circle cx="73.55" cy="212.49" r="1.56" class="cls-2"/><circle cx="79.6" cy="212.49" r="1.56" class="cls-2"/><circle cx="85.66" cy="212.49" r="1.56" class="cls-2"/><circle cx="91.72" cy="212.49" r="1.56" class="cls-2"/><circle cx="97.77" cy="212.49" r="1.56" class="cls-2"/><circle cx="103.83" cy="212.49" r="1.56" class="cls-2"/><circle cx="109.88" cy="212.49" r="1.56" class="cls-2"/><circle cx="49.33" cy="219.93" r="1.56" class="cls-2"/><circle cx="55.38" cy="219.93" r="1.56" class="cls-2"/><circle cx="61.44" cy="219.93" r="1.56" class="cls-2"/><circle cx="67.49" cy="219.93" r="1.56" class="cls-2"/><circle cx="73.55" cy="219.93" r="1.56" class="cls-2"/><circle cx="79.6" cy="219.93" r="1.56" class="cls-2"/><circle cx="85.66" cy="219.93" r="1.56" class="cls-2"/><circle cx="91.72" cy="219.93" r="1.56" class="cls-2"/><circle cx="97.77" cy="219.93" r="1.56" class="cls-2"/><circle cx="103.83" cy="219.93" r="1.56" class="cls-2"/><circle cx="109.88" cy="219.93" r="1.56" class="cls-2"/><circle cx="49.33" cy="227.37" r="1.56" class="cls-2"/><circle cx="55.38" cy="227.37" r="1.56" class="cls-2"/><circle cx="61.44" cy="227.37" r="1.56" class="cls-2"/><circle cx="67.49" cy="227.37" r="1.56" class="cls-2"/><circle cx="73.55" cy="227.37" r="1.56" class="cls-2"/><circle cx="79.6" cy="227.37" r="1.56" class="cls-2"/><circle cx="85.66" cy="227.37" r="1.56" class="cls-2"/><circle cx="91.72" cy="227.37" r="1.56" class="cls-2"/><circle cx="97.77" cy="227.37" r="1.56" class="cls-2"/><circle cx="103.83" cy="227.37" r="1.56" class="cls-2"/><circle cx="109.88" cy="227.37" r="1.56" class="cls-2"/></g><path d="M46.24,152.58H36.63a1.38,1.38,0,0,1-1.3-.92A5.21,5.21,0,0,0,30,148.27a1.39,1.39,0,0,1-1.51-1.2,5.14,5.14,0,0,0-8.58-3.13,1.38,1.38,0,0,1-1.69.14,6.32,6.32,0,0,0-9.62,6.79,1.38,1.38,0,0,1-1.35,1.71H2a1.38,1.38,0,0,1,0-2.77H5.63c0-.14,0-.29,0-.43a9.1,9.1,0,0,1,13.21-8.13,7.91,7.91,0,0,1,12.12,4.24,7.94,7.94,0,0,1,6.59,4.32h8.7a1.38,1.38,0,0,1,0,2.77Z" class="cls-2"/><path d="M184.78,150.79H148.41a16.69,16.69,0,0,1,.05-33.38,16.36,16.36,0,0,1,3.15.31,20.55,20.55,0,0,1,38.31.51,16.68,16.68,0,0,1-5.14,32.55ZM148.46,120a14.12,14.12,0,0,0,0,28.23h36.33a14.11,14.11,0,0,0,3.8-27.7,1.29,1.29,0,0,1-.87-.83,18,18,0,0,0-34.07,0,1.29,1.29,0,0,1-1.55.83A14.15,14.15,0,0,0,148.46,120Z" class="cls-2"/><path d="M160.51,174.24a1.29,1.29,0,0,1-1.29-1.29V157a1.29,1.29,0,0,1,2.57,0V173A1.29,1.29,0,0,1,160.51,174.24Z" class="cls-2"/><path d="M148.63,167.66a1.29,1.29,0,0,1-1.29-1.29V157a1.29,1.29,0,0,1,2.57,0v9.34A1.29,1.29,0,0,1,148.63,167.66Z" class="cls-2"/><path d="M172.39,167a1.29,1.29,0,0,1-1.29-1.29V157a1.29,1.29,0,0,1,2.57,0v8.65A1.29,1.29,0,0,1,172.39,167Z" class="cls-2"/><path d="M184.27,171.47a1.29,1.29,0,0,1-1.29-1.29V157a1.29,1.29,0,0,1,2.57,0v13.15A1.29,1.29,0,0,1,184.27,171.47Z" class="cls-2"/><circle cx="161.56" cy="126.12" r="3.15" class="cls-2"/><circle cx="176.39" cy="126.12" r="3.15" class="cls-2"/><path d="M175.33,140.65a1.38,1.38,0,0,1-.9-.33,8,8,0,0,0-10.86,0,1.38,1.38,0,0,1-1.89-2,10.68,10.68,0,0,1,14.56,0,1.38,1.38,0,0,1-.9,2.43Z" class="cls-2"/><path d="M159.37,30.23,163.61,26a1.38,1.38,0,0,0-2-2l-4.24,4.24L153.17,24a1.38,1.38,0,0,0-2,2l4.24,4.24-4.24,4.24a1.38,1.38,0,1,0,2,2l4.24-4.24,4.24,4.24a1.38,1.38,0,0,0,2-2Z" class="cls-2"/><path d="M133.53,224.94l4.24-4.24a1.38,1.38,0,0,0-2-2L131.57,223l-4.24-4.24a1.38,1.38,0,0,0-2,2l4.24,4.24-4.24,4.24a1.38,1.38,0,1,0,2,2l4.24-4.24,4.24,4.24a1.38,1.38,0,0,0,2-2Z" class="cls-2"/><path d="M291.79,192.18l4.24-4.24a1.38,1.38,0,0,0-2-2l-4.24,4.24L285.59,186a1.38,1.38,0,0,0-2,2l4.24,4.24-4.24,4.24a1.38,1.38,0,1,0,2,2l4.24-4.24,4.24,4.24a1.38,1.38,0,0,0,2-2Z" class="cls-2"/><path d="M42.63,72.22,46.87,68a1.38,1.38,0,1,0-2-2l-4.24,4.24L36.43,66a1.38,1.38,0,1,0-2,2l4.24,4.24-4.24,4.24a1.38,1.38,0,1,0,2,2l4.24-4.24,4.24,4.24a1.38,1.38,0,1,0,2-2Z" class="cls-2"/><path d="M21.53,201.87a7.15,7.15,0,1,1,7.15-7.15A7.16,7.16,0,0,1,21.53,201.87Zm0-11.53a4.38,4.38,0,1,0,4.38,4.38A4.39,4.39,0,0,0,21.53,190.34Z" class="cls-2"/><path d="M105.5,26.77a7.15,7.15,0,1,1,7.15-7.15A7.16,7.16,0,0,1,105.5,26.77Zm0-11.54a4.38,4.38,0,1,0,4.38,4.38A4.39,4.39,0,0,0,105.5,15.24Z" class="cls-2"/><path d="M259.61,14.31a7.15,7.15,0,1,1,7.15-7.15A7.16,7.16,0,0,1,259.61,14.31Zm0-11.54A4.38,4.38,0,1,0,264,7.16,4.39,4.39,0,0,0,259.61,2.78Z" class="cls-2"/><path d="M332.25,81.7a7.15,7.15,0,1,1,7.15-7.15A7.16,7.16,0,0,1,332.25,81.7Zm0-11.53a4.38,4.38,0,1,0,4.38,4.38A4.39,4.39,0,0,0,332.25,70.16Z" class="cls-2"/><polygon points="224.02 115.25 224.02 59.53 215.49 59.53 215.49 124.24 271.89 124.24 271.89 115.25 224.02 115.25" class="cls-4"/><path d="M267.22,243.86a7.15,7.15,0,1,1,7.15-7.15A7.16,7.16,0,0,1,267.22,243.86Zm0-11.54a4.38,4.38,0,1,0,4.38,4.38A4.39,4.39,0,0,0,267.22,232.33Z" class="cls-2"/><path d="M81,75.45H107.8l2-5a1.38,1.38,0,0,1,.18-.32,6.19,6.19,0,0,1,4.91-2.44h17.25a6.15,6.15,0,0,1,4.66,2.14,1.38,1.38,0,0,1,.2.31l2.52,5.34H223.1V62.37H81Z" class="cls-5"/><path d="M265.14,77.87,280,63a2.08,2.08,0,1,0-2.94-2.94L262.2,74.94,247.32,60.05A2.08,2.08,0,1,0,244.38,63l14.88,14.88L244.38,92.76a2.08,2.08,0,1,0,2.94,2.94L262.2,80.81l14.88,14.88A2.08,2.08,0,1,0,280,92.76Z" class="cls-2"/><path d="M78.25,96.88V71h-8.3V93.35h.18A11.13,11.13,0,0,1,78.25,96.88ZM79.63,199.1a1.38,1.38,0,0,1-1.38-1.38V114.38h-8.3v93.37h191V199.1Z" class="cls-4"/><path d="M311.57,164.67H298.15a11.17,11.17,0,0,0-9.94-6.47,11.09,11.09,0,0,0-16.24-7V117h27.94a1.38 z,1.38,0,0,0,1.38-1.38V40.15a1.38,1.38,0,0,0-1.38-1.38H224.48a1.38,1.38,0,0,0-1.38,1.38V59.6H79.63A1.38,1.38,0,0,0,78.25,61V96.88A11.1,11.1,0,0,0,63.41,95.6a12.91,12.91,0,0,0-19.1,11.34,12.35,12.35,0,0,0,.07,1.32H38.19a1.38,1.38,0,1,0,0,2.77H46a1.38,1.38,0,0,0,1.35-1.71A10.14,10.14,0,0,1,62.78,98.45a1.39,1.39,0,0,0,1.69-.14,8.36,8.36,0,0,1,13.95,5.09,1.38,1.38,0,0,0,1.51,1.2c.27,0,.55,0,.83,0a8.39,8.39,0,0,1,7.88,5.56,1.38,1.38,0,0,0,1.3.92h14.35a1.38,1.38,0,1,0,0-2.77H90.87A11.17,11.17,0,0,0,81,101.8V78.22h27.72a1.38,1.38,0,0,0,1.28-.87l2.3-5.71a3.41,3.41,0,0,1,2.59-1.21h17.25a3.39,3.39,0,0,1,2.45,1l2.81,5.94a1.39,1.39,0,0,0,1.25.79H223.1v37.37a1.38,1.38,0,0,0,1.38,1.38h44.73v34.34a12.91,12.91,0,0,0-17.62,12,12.38,12.38,0,0,0,.07,1.32h-6.19a1.38,1.38,0,1,0,0,2.77h7.83a1.38,1.38,0,0,0,1.35-1.71,10.14,10.14,0,0,1,15.41-10.87,1.38,1.38,0,0,0,1.69-.14,8.36,8.36,0,0,1,13.95,5.09,1.39,1.39,0,0,0,1.51,1.2c.27,0,.55,0,.83,0a8.39,8.39,0,0,1,7.88,5.56,1.39,1.39,0,0,0,1.3.92h14.35a1.38,1.38,0,0,0,0-2.77ZM223.1,75.45H139.54L137,70.11a1.38,1.38,0,0,0-.2-.31,6.15,6.15,0,0,0-4.66-2.14H114.91A6.19,6.19,0,0,0,110,70.1a1.38,1.38,0,0,0-.18.32l-2,5H81V62.37H223.1Zm2.77,38.76V41.54h72.67v72.67Z" class="cls-2"/><path d="M269.21,196.33H81V114.38H78.25v83.33a1.38,1.38,0,0,0,1.38,1.38h191a1.38,1.38,0,0,0,1.38-1.38V171.13h-2.77Z" class="cls-2"/><circle cx="87.45" cy="69.57" r="2.16" class="cls-2"/><circle cx="93.68" cy="69.57" r="2.16" class="cls-2"/><circle cx="99.91" cy="69.57" r="2.16" class="cls-2"/></g></g></svg>